<?xml version="1.0" encoding="iso-8859-1"?>
<!-- Uploaded to: SVG Repo, www.svgrepo.com, Generator: SVG Repo Mixer Tools -->
<!DOCTYPE svg PUBLIC "-//W3C//DTD SVG 1.1//EN" "http://www.w3.org/Graphics/SVG/1.1/DTD/svg11.dtd">
<svg fill="#000000" version="1.1" id="Capa_1" xmlns="http://www.w3.org/2000/svg" xmlns:xlink="http://www.w3.org/1999/xlink" 
	 width="800px" height="800px" viewBox="0 0 37.632 37.632"
	 xml:space="preserve">
<g>
	<path d="M12.036,21.619c-1.821,0-3.547-0.695-4.858-1.96l-5.04-4.859c-2.777-2.677-2.859-7.117-0.182-9.897l2.316-2.397
		c1.33-1.381,3.12-2.144,5.039-2.144c1.821,0,3.547,0.697,4.858,1.963l5.038,4.856c2.779,2.681,2.859,7.12,0.181,9.897l-2.313,2.399
		C15.745,20.857,13.954,21.619,12.036,21.619z M9.312,4.359c-0.823,0-1.59,0.326-2.159,0.919L4.837,7.676
		c-1.147,1.19-1.113,3.094,0.077,4.24l5.039,4.86c1.154,1.109,3.132,1.076,4.242-0.078l2.314-2.399
		c1.148-1.19,1.113-3.094-0.078-4.242L11.394,5.2C10.831,4.659,10.091,4.359,9.312,4.359z M28.302,37.271
		c-1.84,0-3.578-0.709-4.895-1.996l-5.006-4.893c-1.338-1.309-2.086-3.059-2.105-4.928c-0.021-1.869,0.688-3.637,1.994-4.973
		l2.331-2.384c1.325-1.358,3.104-2.106,5.005-2.106c1.84,0,3.577,0.709,4.894,1.996l5.006,4.893
		c1.338,1.307,2.086,3.057,2.106,4.926s-0.688,3.637-1.995,4.975l-2.33,2.383C31.98,36.521,30.202,37.271,28.302,37.271z
		 M25.627,19.994c-0.814,0-1.575,0.32-2.146,0.902l-2.33,2.385c-0.561,0.572-0.862,1.328-0.854,2.131
		c0.01,0.801,0.33,1.551,0.9,2.109l5.007,4.895c1.147,1.123,3.12,1.102,4.241-0.047l2.332-2.385
		c0.562-0.572,0.863-1.328,0.854-2.131c-0.01-0.803-0.33-1.553-0.902-2.109l-5.006-4.895C27.158,20.294,26.415,19.994,25.627,19.994
		z M26.673,23.623L13.715,11.129l-2.774,2.879L23.898,26.5L26.673,23.623z"/>
</g>
</svg>